<svg xmlns="http://www.w3.org/2000/svg" viewBox="0 0 240 240" role="img" aria-labelledby="title desc">
  <title id="title">Default team avatar</title>
  <desc id="desc">Fallback image for team profile</desc>
  <defs>
    <linearGradient id="bg" x1="0" y1="0" x2="1" y2="1">
      <stop offset="0%" stop-color="#1d4ed8"/>
      <stop offset="100%" stop-color="#06b6d4"/>
    </linearGradient>
  </defs>
  <rect width="240" height="240" rx="32" fill="url(#bg)"/>
  <circle cx="120" cy="88" r="24" fill="#ffffff" fill-opacity="0.95"/>
  <circle cx="78" cy="106" r="16" fill="#ffffff" fill-opacity="0.85"/>
  <circle cx="162" cy="106" r="16" fill="#ffffff" fill-opacity="0.85"/>
  <path d="M72 186c6-22 24-36 48-36s42 14 48 36" fill="#ffffff" fill-opacity="0.95"/>
  <path d="M42 186c5-16 18-27 34-27 7 0 14 2 20 6-8 6-14 13-18 21z" fill="#ffffff" fill-opacity="0.78"/>
  <path d="M198 186c-5-16-18-27-34-27-7 0-14 2-20 6 8 6 14 13 18 21z" fill="#ffffff" fill-opacity="0.78"/>
</svg>