<svg width="673" height="186" viewBox="0 0 673 186" fill="none" xmlns="http://www.w3.org/2000/svg">
<path d="M458.653 37.4413H471.02V95.6744C471.02 114.442 455.881 129.778 437.117 129.778C418.459 129.778 403.32 114.442 403.32 95.6744C403.32 76.9068 418.459 61.571 437.117 61.571C450.337 61.571 457.907 70.4722 457.907 70.4722H458.653V37.4413ZM437.117 117.23C448.951 117.23 458.653 107.578 458.653 95.6744C458.653 83.7704 448.951 74.1185 437.117 74.1185C425.283 74.1185 415.687 83.7704 415.687 95.6744C415.687 107.578 425.283 117.23 437.117 117.23Z" fill="#1D2D44"/>
<path d="M549.84 95.6744V101.894H495.467C495.68 102.645 495.894 103.396 496.213 104.039C497.28 106.613 498.879 108.973 500.798 110.903C502.823 112.941 505.062 114.442 507.621 115.514C512.952 117.766 519.029 117.766 524.359 115.514C526.918 114.442 529.157 112.941 531.183 110.903L539.925 119.804C536.833 122.914 533.208 125.381 529.157 127.097C524.999 128.813 520.521 129.778 515.937 129.778C511.353 129.778 506.981 128.813 502.823 127.097C498.772 125.381 495.147 122.914 492.055 119.804C488.857 116.587 486.405 112.941 484.806 108.973C482.993 104.683 482.14 100.286 482.14 95.6744C482.14 91.0629 482.993 86.5587 484.806 82.3762C486.512 78.301 488.857 74.6547 492.055 71.5446C495.147 68.4346 498.772 65.968 502.823 64.2521C511.139 60.7131 520.841 60.7131 529.157 64.2521C533.208 65.968 536.833 68.4346 539.925 71.5446C543.017 74.6547 545.469 78.301 547.175 82.3762C548.987 86.5587 549.84 91.0629 549.84 95.6744ZM495.467 89.4543H536.513C536.3 88.7036 536.087 87.9529 535.767 87.3094C534.701 84.7356 533.102 82.3762 531.183 80.4458C529.157 78.4082 526.918 76.9068 524.359 75.8344C519.029 73.5823 512.952 73.5823 507.621 75.8344C505.062 76.9068 502.823 78.4082 500.798 80.4458C498.879 82.3762 497.28 84.7356 496.213 87.3094C495.894 87.9529 495.68 88.7036 495.467 89.4543Z" fill="#1D2D44"/>
<path d="M612.545 64.1449H624.912V96.9613C624.912 98.6772 624.166 100.286 622.993 101.573L595.273 127.418C594.101 128.598 592.608 129.134 591.009 129.134C589.516 129.134 588.024 128.598 586.851 127.418L559.131 101.573C557.852 100.286 557.212 98.6772 557.212 96.9613V64.1449H569.58V94.2802L591.009 114.335L612.545 94.2802V64.1449Z" fill="#1D2D44"/>
<path d="M231.108 74.1192C242.942 74.1192 252.643 83.7701 252.643 95.6739C252.643 107.578 242.942 117.23 231.108 117.23C219.274 117.23 209.678 107.578 209.678 95.6739C209.678 83.7702 219.274 74.1193 231.108 74.1192Z" fill="#1D2D44"/>
<path fill-rule="evenodd" clip-rule="evenodd" d="M266.535 0C294.135 0 316.51 22.5068 316.51 50.2703V60.0772C316.51 63.5339 317.798 66.9127 320.343 69.2362C332.15 80.0178 340.589 79.321 352.337 69.1642C355.07 66.8009 356.49 63.2822 356.49 59.6567V50.2703C356.49 22.9406 378.171 0.704651 405.175 0.016364L406.465 0H623.025C650.625 0 673 22.5068 673 50.2703V135.73L672.984 137.027C672.299 164.191 650.194 186 623.025 186H406.465L405.175 185.984C378.171 185.295 356.49 163.059 356.49 135.73V123.679C356.49 120.454 355.359 117.296 353.141 114.969C341.18 102.424 332.583 101.649 319.848 114.965C317.632 117.283 316.51 120.433 316.51 123.648V135.73C316.51 163.493 294.135 186 266.535 186H49.9753C22.3747 186 0 163.493 0 135.73V50.2703C1.77095e-06 22.5068 22.3747 0 49.9753 0H266.535ZM406.465 16.7568C388.065 16.7568 373.149 31.7613 373.149 50.2703V135.73C373.149 154.239 388.065 169.243 406.465 169.243H623.025C641.425 169.243 656.342 154.239 656.342 135.73V50.2703C656.342 31.7613 641.425 16.7568 623.025 16.7568H406.465ZM231.108 61.5713C212.451 61.5714 197.311 76.9066 197.311 95.6739V153.907H209.678V120.876H210.425C210.425 120.876 217.889 129.671 231.002 129.778H231.108C249.872 129.778 265.012 114.441 265.012 95.6739C265.012 76.9065 249.872 61.5713 231.108 61.5713ZM55.1729 63.3942V129.027H67.6472V63.3942H55.1729ZM157.554 62.108C148.065 62.108 139.749 66.6116 134.312 73.5825C128.874 66.6116 120.452 62.108 111.07 62.108C94.7582 62.1082 81.6445 75.4051 81.6441 91.7056V129.027H94.0111V91.7056C94.0115 82.2687 101.688 74.6545 111.07 74.6543C120.451 74.6543 128.128 82.2686 128.128 91.7056V129.027H140.495V91.7056C140.496 82.2686 148.172 74.6543 157.554 74.6543C166.935 74.6544 174.612 82.2686 174.612 91.7056V129.027H186.979V91.7056C186.979 75.405 173.759 62.1081 157.554 62.108ZM61.4637 35.5116C56.3464 35.5116 52.1879 39.6932 52.1877 44.8407C52.1877 49.9884 56.3462 54.1714 61.4637 54.1714C66.5808 54.171 70.7381 49.9881 70.7381 44.8407C70.7379 39.6935 66.5807 35.512 61.4637 35.5116Z" fill="#1D2D44"/>
</svg>
